<?xml version="1.0" encoding="utf-8"?>
<!-- Generator: Adobe Illustrator 18.0.0, SVG Export Plug-In . SVG Version: 6.00 Build 0)  -->
<!DOCTYPE svg PUBLIC "-//W3C//DTD SVG 1.1//EN" "http://www.w3.org/Graphics/SVG/1.1/DTD/svg11.dtd">
<svg version="1.1" xmlns="http://www.w3.org/2000/svg" xmlns:xlink="http://www.w3.org/1999/xlink" x="0px" y="0px"
	 viewBox="0 0 331.5 196" enable-background="new 0 0 331.5 196" xml:space="preserve">
<g id="Layer_1">
</g>
<g id="Isolation_Mode">
	<linearGradient id="SVGID_1_" gradientUnits="userSpaceOnUse" x1="1" y1="98.5447" x2="330.6916" y2="98.5447">
		<stop  offset="0" style="stop-color:#00A0DF"/>
		<stop  offset="1" style="stop-color:#011C44"/>
	</linearGradient>
	<path fill="url(#SVGID_1_)" d="M164.5,2.5c-29.1,0-52.7,23.6-52.7,52.7s23.6,52.7,52.7,52.7s52.7-23.6,52.7-52.7
		S193.6,2.5,164.5,2.5z M164.5,96.7c-22.9,0-41.5-18.6-41.5-41.5s18.6-41.5,41.5-41.5c21,0,38.3,15.6,41.1,35.8h-32.1
		c-3.1,0-5.6,2.5-5.6,5.6s2.5,5.6,5.6,5.6h32.1C202.8,81.1,185.4,96.7,164.5,96.7z M189.1,70.1c2.3,2.1,2.5,5.7,0.4,7.9
		c-6.4,7-15.5,11-25,11c-18.6,0-33.8-15.2-33.8-33.8c0-18.6,15.2-33.8,33.8-33.8c9.1,0,17.7,3.6,24.1,10.1c2.2,2.2,2.2,5.8-0.1,8
		c-2.2,2.2-5.8,2.2-8-0.1c-4.3-4.3-10-6.7-16.1-6.7c-12.4,0-22.6,10.1-22.6,22.6c0,12.4,10.1,22.6,22.6,22.6
		c6.3,0,12.4-2.7,16.7-7.4C183.2,68.2,186.8,68,189.1,70.1z M41.4,188.7c-4.4,3.9-10.1,5.8-17.3,5.8c-7.2,0-13.4-1.2-18.7-3.6v-11.6
		c5.8,2.4,11,3.6,15.5,3.6s7.8-0.9,10-2.6c2.2-1.7,3.2-4.1,3.2-7.2v-6h-0.3c-1.2,2-2.9,3.7-5.2,4.9c-2.3,1.3-4.7,1.9-7.2,1.9
		c-6,0-10.9-2.3-14.7-6.8C2.9,162.5,1,156.5,1,149c0-7.4,1.9-13.4,5.6-18c3.7-4.5,8.6-6.8,14.7-6.8c2.9,0,5.6,0.7,8.1,2
		c2.5,1.3,4.3,3.1,5.3,5.4H35v-6.4h12.9v47.4C47.9,179.5,45.7,184.8,41.4,188.7z M17.8,158.5c1.6,2.2,3.9,3.3,6.8,3.3
		c2.9,0,5.2-1.2,6.9-3.5c1.7-2.3,2.6-5.4,2.6-9.3c0-3.9-0.9-6.9-2.6-9.3c-1.7-2.3-4.1-3.5-6.9-3.5c-2.9,0-5.1,1.1-6.7,3.4
		c-1.6,2.3-2.5,5.4-2.5,9.4C15.3,153.1,16.1,156.3,17.8,158.5z M93.8,167.4c-4.5,4.6-10.3,6.9-17.5,6.9c-7.2,0-13.1-2.3-17.5-6.9
		c-4.5-4.6-6.7-10.6-6.7-18.1c0-7.4,2.2-13.5,6.7-18.1c4.5-4.6,10.3-7,17.5-7c7.2,0,13.1,2.3,17.5,7c4.5,4.6,6.7,10.7,6.7,18.1
		C100.5,156.8,98.3,162.8,93.8,167.4z M68.9,158.9c1.8,2.4,4.3,3.6,7.4,3.6c3.1,0,5.6-1.2,7.4-3.6c1.8-2.4,2.8-5.6,2.8-9.6
		c0-4-0.9-7.2-2.8-9.6c-1.8-2.4-4.3-3.5-7.4-3.5c-3.1,0-5.6,1.2-7.4,3.5c-1.8,2.4-2.7,5.5-2.7,9.6C66.2,153.3,67.1,156.5,68.9,158.9
		z M124.2,123.7v6.1h-5.5v16h-7v-16h-5.5v-6.1H124.2z M142.4,129.8h-9v2.1h7.1v5.6h-7.1v2.3h9v6.1h-16v-22.1h16V129.8z M155.5,146.2
		c-3.5,0-6.3-1-8.2-3c-2-2-3-4.8-3-8.4c0-3.6,1-6.4,3-8.4c2-2,4.7-3,8.2-3c2.3,0,4.3,0.4,6,1.1v6.2c-1.7-0.6-3.4-0.9-4.9-0.9
		c-1.5,0-2.7,0.4-3.6,1.3c-0.8,0.9-1.3,2.1-1.3,3.7c0,1.6,0.4,2.8,1.3,3.7c0.8,0.9,2,1.3,3.6,1.3c1.5,0,3.2-0.3,4.9-0.9v6.2
		C159.8,145.8,157.8,146.2,155.5,146.2z M176.4,123.7h7.1v22.1h-7.1v-8.1h-5.2v8.1h-7.1v-22.1h7.1v7.9h5.2V123.7z M199.3,123.7h6.8
		v22.1h-6.5l-5.8-10.5h-0.1v10.5h-6.8v-22.1h6.5l5.8,10.4h0.1V123.7z M227.7,143.2c-1.9,2-4.6,3-7.9,3s-6-1-7.9-3
		c-1.9-2-2.9-4.8-2.9-8.4c0-3.6,1-6.4,2.9-8.4c1.9-2,4.6-3,7.9-3s6,1,7.9,3c1.9,2,2.9,4.8,2.9,8.4
		C230.5,138.4,229.6,141.2,227.7,143.2z M217.3,138.7c0.6,0.9,1.4,1.4,2.5,1.4s1.9-0.5,2.5-1.4c0.6-0.9,0.9-2.2,0.9-3.9
		c0-1.7-0.3-3-0.9-3.9c-0.6-0.9-1.4-1.4-2.5-1.4s-1.9,0.5-2.5,1.4c-0.6,0.9-0.9,2.2-0.9,3.9C216.4,136.5,216.7,137.8,217.3,138.7z
		 M240.4,139.8h8v6.1h-15v-22.1h7.1V139.8z M268.7,143.2c-1.9,2-4.6,3-7.9,3c-3.4,0-6-1-7.9-3c-1.9-2-2.9-4.8-2.9-8.4
		c0-3.6,1-6.4,2.9-8.4c1.9-2,4.6-3,7.9-3c3.4,0,6,1,7.9,3c1.9,2,2.9,4.8,2.9,8.4C271.6,138.4,270.7,141.2,268.7,143.2z M258.3,138.7
		c0.6,0.9,1.4,1.4,2.5,1.4s1.9-0.5,2.5-1.4c0.6-0.9,0.9-2.2,0.9-3.9c0-1.7-0.3-3-0.9-3.9c-0.6-0.9-1.4-1.4-2.5-1.4s-1.9,0.5-2.5,1.4
		c-0.6,0.9-0.9,2.2-0.9,3.9C257.5,136.5,257.8,137.8,258.3,138.7z M285.3,146.2c-3.5,0-6.3-1-8.2-3c-1.9-2-2.9-4.8-2.9-8.4
		c0-3.6,1-6.4,3.1-8.4c2.1-2,4.9-3,8.6-3c2.8,0,4.9,0.4,6.4,1.1v6.2c-1.4-0.6-3.1-0.9-5-0.9c-1.9,0-3.3,0.4-4.3,1.3
		c-1,0.9-1.5,2.1-1.5,3.7c0,3.6,1.6,5.4,4.9,5.4h0.3v-1.9h-2.3v-5.4h8.8v11.7c-0.8,0.5-1.9,0.9-3.3,1.2
		C288.4,146,286.9,146.2,285.3,146.2z M309.3,145.9h-7.1v-7l-7.7-15.2h8.3l2.9,7.3l2.9-7.3h8.3l-7.7,15.2V145.9z M132.6,151.4v22.1
		h-6.7v-14.9h-0.1l-2.9,14.9H117l-3-14.9h-0.1v14.9h-6.7v-22.1h10.2l2.5,13.6l2.4-13.6H132.6z M149,173.5l-0.7-3.2h-5.7l-0.7,3.2
		h-7.4l5.9-22.1h9.9l5.9,22.1H149z M143.9,164.2h3.2l-1.5-7.4h-0.1L143.9,164.2z M170.9,151.4h6.8v22.1h-6.5l-5.8-10.5h-0.1v10.5
		h-6.8v-22.1h6.5l5.8,10.4h0.1V151.4z M194.2,173.5l-0.7-3.2h-5.7l-0.7,3.2h-7.4l5.9-22.1h9.9l5.9,22.1H194.2z M189.1,164.2h3.2
		l-1.5-7.4h-0.1L189.1,164.2z M213.8,173.8c-3.5,0-6.3-1-8.2-3c-1.9-2-2.9-4.8-2.9-8.4c0-3.6,1-6.4,3.1-8.4c2.1-2,4.9-3,8.6-3
		c2.8,0,4.9,0.4,6.4,1.1v6.2c-1.4-0.6-3.1-0.9-5-0.9c-1.9,0-3.3,0.4-4.3,1.3c-1,0.9-1.5,2.1-1.5,3.7c0,3.6,1.6,5.4,4.9,5.4h0.3v-1.9
		h-2.3v-5.4h8.8v11.7c-0.8,0.5-1.9,0.9-3.3,1.2C216.9,173.6,215.4,173.8,213.8,173.8z M241.1,157.5h-9v2.1h7.1v5.6h-7.1v2.3h9v6.1
		h-16v-22.1h16V157.5z M269.1,151.4v22.1h-6.7v-14.9h-0.1l-2.9,14.9h-5.8l-3-14.9h-0.1v14.9h-6.7v-22.1H254l2.5,13.6l2.4-13.6H269.1
		z M288.4,157.5h-9v2.1h7.1v5.6h-7.1v2.3h9v6.1h-16v-22.1h16V157.5z M303.6,151.4h6.8v22.1h-6.5L298,163h-0.1v10.5h-6.8v-22.1h6.5
		l5.8,10.4h0.1V151.4z M330.7,151.4v6.1h-5.5v16h-7v-16h-5.5v-6.1H330.7z"/>
</g>
</svg>
